<svg width="1200" height="167" viewBox="0 0 1200 167" fill="none" xmlns="http://www.w3.org/2000/svg">
<g clip-path="url(#clip0_117_3621)">
<rect x="-29" width="1258" height="373" fill="#EFEEE8"/>
<rect x="-29" width="1258" height="373" fill="url(#paint0_linear_117_3621)"/>
<path d="M843 0H1060.3L1258 189.284V373L843 0Z" fill="#0F21FF" fill-opacity="0.05"/>
<path d="M1061 0H1258V189.5L1061 0Z" fill="#0F21FF" fill-opacity="0.13"/>
<path d="M415 373H197.699L-3.05176e-05 183.716V0L415 373Z" fill="#0F21FF" fill-opacity="0.05"/>
<circle cx="273" cy="37" r="2" fill="#0F21FF"/>
<circle cx="417.169" cy="37" r="2" fill="#0F21FF"/>
<circle cx="309.043" cy="37" r="2" fill="#0F21FF"/>
<circle cx="453.212" cy="37" r="2" fill="#0F21FF"/>
<circle cx="345.085" cy="37" r="2" fill="#0F21FF"/>
<circle cx="489.255" cy="37" r="2" fill="#0F21FF"/>
<circle cx="381.127" cy="37" r="2" fill="#0F21FF"/>
<circle cx="525.297" cy="37" r="2" fill="#0F21FF"/>
<circle cx="273" cy="69.8945" r="2" fill="#0F21FF"/>
<circle cx="417.169" cy="69.8945" r="2" fill="#0F21FF"/>
<circle cx="309.043" cy="69.8945" r="2" fill="#0F21FF"/>
<circle cx="453.212" cy="69.8945" r="2" fill="#0F21FF"/>
<circle cx="345.085" cy="69.8945" r="2" fill="#0F21FF"/>
<circle cx="489.255" cy="69.8945" r="2" fill="#0F21FF"/>
<circle cx="381.127" cy="69.8945" r="2" fill="#0F21FF"/>
<circle cx="525.297" cy="69.8945" r="2" fill="#0F21FF"/>
<circle cx="273" cy="102.789" r="2" fill="#0F21FF"/>
<circle cx="417.169" cy="102.789" r="2" fill="#0F21FF"/>
<circle cx="309.043" cy="102.789" r="2" fill="#0F21FF"/>
<circle cx="453.212" cy="102.789" r="2" fill="#0F21FF"/>
<circle cx="345.085" cy="102.789" r="2" fill="#0F21FF"/>
<circle cx="489.255" cy="102.789" r="2" fill="#0F21FF"/>
<circle cx="381.127" cy="102.789" r="2" fill="#0F21FF"/>
<circle cx="525.297" cy="102.789" r="2" fill="#0F21FF"/>
<circle cx="273" cy="135.684" r="2" fill="#0F21FF"/>
<circle cx="417.169" cy="135.684" r="2" fill="#0F21FF"/>
<circle cx="309.043" cy="135.684" r="2" fill="#0F21FF"/>
<circle cx="453.212" cy="135.684" r="2" fill="#0F21FF"/>
<circle cx="345.085" cy="135.684" r="2" fill="#0F21FF"/>
<circle cx="489.255" cy="135.684" r="2" fill="#0F21FF"/>
<circle cx="381.127" cy="135.684" r="2" fill="#0F21FF"/>
<circle cx="525.297" cy="135.684" r="2" fill="#0F21FF"/>
<circle cx="273" cy="168.578" r="2" fill="#0F21FF"/>
<circle cx="417.169" cy="168.578" r="2" fill="#0F21FF"/>
<circle cx="309.043" cy="168.578" r="2" fill="#0F21FF"/>
<circle cx="453.212" cy="168.578" r="2" fill="#0F21FF"/>
<circle cx="345.085" cy="168.578" r="2" fill="#0F21FF"/>
<circle cx="489.255" cy="168.578" r="2" fill="#0F21FF"/>
<circle cx="381.127" cy="168.578" r="2" fill="#0F21FF"/>
<circle cx="525.297" cy="168.578" r="2" fill="#0F21FF"/>
</g>
<defs>
<linearGradient id="paint0_linear_117_3621" x1="-9.86694" y1="9.68832" x2="686.673" y2="820.437" gradientUnits="userSpaceOnUse">
<stop stop-color="#0F21FF" stop-opacity="0.94902"/>
<stop offset="0.76075" stop-color="#8188E1"/>
</linearGradient>
<clipPath id="clip0_117_3621">
<rect width="1200" height="167" rx="20" fill="white"/>
</clipPath>
</defs>
</svg>
